<?xml version="1.0" encoding="UTF-8"?>
<svg id="Layer_2" xmlns="http://www.w3.org/2000/svg" viewBox="0 0 1261.99 1475.06">
  <defs>
    <style>
      .cls-1 {
        fill: #037c95;
      }

      .cls-2 {
        fill: #2b8e55;
      }

      .cls-3 {
        fill: #027337;
      }

      .cls-4 {
        fill: #45bc7d;
      }

      .cls-5 {
        fill: #019d3a;
      }
    </style>
  </defs>
  <g id="ranchu">
    <path class="cls-1" d="M32.18,1474.03c1.85-.75,3.66-1.17,5.09.77-1.82.52-3.51.24-5.09-.77Z"/>
    <path class="cls-1" d="M6.93,1467.98c2.32-.79,3.91.36,5.33,1.97-2.14.29-3.97-.21-5.33-1.97Z"/>
    <path class="cls-1" d="M1.22,1464.29c.53.72,1.06,1.43,1.58,2.14-1.85,1.15-1.7-1.32-2.79-1.53.41-.2.81-.41,1.22-.61Z"/>
    <path class="cls-1" d="M20,1472.14c1.17-.42,2.27-.57,2.92.82-1.33.96-2.33.81-2.92-.82Z"/>
  </g>
  <g id="Layer_8">
    <g>
      <path class="cls-2" d="M661.1,0c.67,0,1.33,0,2,0,1.34.95,2.61,2.01,4.02,2.82,45.53,26.28,91.08,52.52,136.62,78.78,91.95,53.02,183.89,106.03,275.83,159.06,60.81,35.08,121.61,70.19,182.42,105.28v694.9c-24.98,14.32-49.96,28.61-74.93,42.95-73.9,42.44-147.8,84.89-221.7,127.35-84.13,48.35-168.27,96.7-252.38,145.08-17.01,9.78-33.93,19.7-50.89,29.56h-1c-.18-1.46-1.55-1.59-2.49-2.14-17.86-10.32-35.73-20.63-53.61-30.91-96.47-55.49-192.95-110.96-289.42-166.45-69.51-39.98-139.02-79.95-208.51-119.97-14.68-8.45-29.25-17.09-43.87-25.64,0-228.22,0-456.44,0-684.66,0-3.33-.05-6.66-.07-9.99,1.19-.86,2.32-1.83,3.59-2.56,16.42-9.51,32.86-19,49.29-28.48,83.31-48.09,166.62-96.18,249.93-144.28,77.25-44.6,154.51-89.19,231.75-133.82C618.85,24.65,639.96,12.3,661.1,0ZM1202.96,693.21c0-99.98-.16-199.96.26-299.93.04-9.82-1.68-16.48-11.38-19.9-2.93-1.03-5.48-3.12-8.22-4.7-93.61-53.95-187.22-107.89-280.82-161.86-78.88-45.48-157.75-90.99-236.57-136.58-2.93-1.69-5.11-1.92-8.12-.12-12.29,7.34-24.75,14.38-37.15,21.54-75.82,43.79-151.64,87.58-227.47,131.36-88.66,51.19-177.3,102.42-266.05,153.46-4.32,2.48-5.88,5.03-5.87,10.02.14,203.79.12,407.58.12,611.37,0,1.83.14,3.68-.03,5.5-.23,2.48.76,3.83,2.96,5.08,15.77,8.96,31.43,18.12,47.16,27.16,96.11,55.26,192.23,110.5,288.34,165.77,66.08,38.01,132.16,76.03,198.17,114.15,2.91,1.68,4.91,1.4,7.66-.19,102.86-59.2,205.76-118.32,308.65-177.45,74.91-43.05,149.8-86.12,224.77-129.06,2.95-1.69,3.66-3.55,3.66-6.68-.07-102.98-.06-205.95-.06-308.93Z"/>
      <path class="cls-5" d="M63.2,1040.69c-.33.05-.66.11-.99.16,0-231.63,0-463.27,0-694.9.31-.05.62-.03.91.08.02,3.33.07,6.66.07,9.99,0,228.22,0,456.44,0,684.66Z"/>
      <path class="cls-2" d="M526.3,394.5c0-55.32.05-110.63-.09-165.95-.01-4.18.69-5.64,5.35-5.63,94.3.16,188.6.16,282.9.04,4.22,0,5.17,1.26,5.17,5.29.04,98.47.16,196.94.5,295.41.02,4.56-2.65,5.75-5.39,7.85-15.34,11.74-30.6,23.58-45.82,35.48-50.1,39.19-100.6,77.86-150.22,117.65-64.04,51.36-128.16,102.63-193.96,151.73-10,7.46-20.83,13.78-30.4,21.83-1.89,1.59-3.92,1.56-6.08,1.56-63.98,0-127.96-.04-191.93.06-3.58,0-4.35-1.05-4.34-4.46.09-94.8.11-189.61-.06-284.41,0-4.89,2.39-4.32,5.44-4.32,107.46.03,214.92.03,322.39.02,7.44,0,6.54,1.04,6.54-6.71.03-55.15.02-110.3.02-165.45Z"/>
      <path class="cls-4" d="M819.17,1151.83q.63,7.34-6.62,7.32c-92.98,0-185.95,0-278.93-.03-8.64,0-7.27,1.11-7.28-7.46-.04-95.31-.06-190.62.08-285.94,0-4.73-1-6.16-5.94-6.09-20.66.32-41.32.16-61.98.16-1.93,0-3.87-.17-7.21-.32,5.16-4.19,9.29-7.6,13.49-10.94,73.53-58.44,147.08-116.87,220.61-175.32,43.54-34.61,87.08-69.22,130.54-103.92,2.63-2.1,4.34-2.31,7.29-.31,66.65,45.32,133.38,90.5,200.1,135.71,33.63,22.79,67.22,45.64,100.9,68.35,2.76,1.86,4,3.74,3.97,7.21-.16,24.66-.18,49.32.03,73.98.04,4.3-.91,5.63-5.45,5.62-98.97-.14-197.95-.11-296.92-.1-2.16,0-4.32.18-6.48.28-1.86,1.32-1.27,3.3-1.27,5.05-.02,93.85-.02,187.69,0,281.54,0,1.78-.45,3.71,1.06,5.2ZM869.75,813.9c33.02.13,60.89-24.2,65.48-57.14,3.7-26.54-9.57-52.79-33.5-66.32-22.58-12.76-51.97-10.48-72.28,6.04-3.68,2.99-5.6,2.97-9.32-.05-12.06-9.81-26.2-14.45-41.73-14.07-29.12.71-54.18,20.27-61.96,47.99-7.81,27.86,3.36,56.92,28.09,73.12,23.59,15.44,54.96,13.49,77.26-4.99,2.45-2.03,3.76-1.96,6.16.08,12.01,10.19,26.08,15.09,41.79,15.34Z"/>
      <path class="cls-2" d="M874.08,566.68c7.82,0,15.63,0,23.45,0,74.97,0,149.93.04,224.9-.08,4.37,0,5.86.84,5.84,5.6-.22,52.98-.19,105.96-.26,158.94,0,1.56.88,3.76-.72,4.57-1.56.79-2.9-1.17-4.2-2.04-78.59-52.28-157.15-104.6-235.71-156.92-4.53-3.02-9.07-6.01-13.61-9.02.1-.35.21-.7.31-1.06Z"/>
      <path class="cls-3" d="M819.17,1151.83c-1.5-1.5-1.06-3.42-1.06-5.2-.02-93.84-.02-187.69,0-281.54,0-1.75-.59-3.73,1.27-5.05.02,96.11.05,192.22.06,288.32,0,1.15-.18,2.31-.28,3.46Z"/>
      <path class="cls-2" d="M779.67,805.24c-25.25-.05-47.26-16.39-54.63-40.57-7.42-24.36,2.05-50.13,23.79-64.67,20.03-13.41,47.87-11.76,67.22,3.78,2.56,2.06,2.55,3.34.77,5.96-16.97,24.89-16.91,51.98.14,76.98,1.69,2.48,1.51,3.75-.83,5.62-10.7,8.51-22.78,12.92-36.45,12.91Z"/>
      <path class="cls-2" d="M864.58,805.16c-8.22-.07-20.15-4.38-30.71-12.76-2.37-1.89-2.94-3.09-.92-5.88,16.55-22.92,16.8-53.08.48-76.1-2.58-3.64-1.62-5.08,1.33-7.37,19.64-15.21,47.28-16.1,67.57-2,20.63,14.33,29.78,40.54,22.31,63.86-7.78,24.29-29.63,40.33-60.07,40.25Z"/>
      <path class="cls-2" d="M824.78,782.57c-14.78-17.18-16.58-46.7-1.64-67.3.95-1.31,1.7-2.42,3.24-.35,15.03,20.24,13.57,50.76-1.61,67.65Z"/>
    </g>
  </g>
</svg>